<?xml version="1.0" encoding="UTF-8"?>
<svg id="Layer_1" xmlns="http://www.w3.org/2000/svg" version="1.1" viewBox="0 0 1448 385">
  <!-- Generator: Adobe Illustrator 30.1.0, SVG Export Plug-In . SVG Version: 2.1.1 Build 136)  -->
  <path d="M513.7,218.8c4.5-4.5,8.9-9.3,14.1-12.8l14.9-9.9,8.7-5.6c3.2-2,9.1-3.6,10.7-7.4l4.4-10.7,8.9-22.9-21.9,4.9c-4.7,1.1-8.4-7.6-7.6-9,2.2-4.3,1.7-1.4,13.9-5l22.2-6.5,8.1-19,5.7-13.1c1.5-3.5,3-7,4.7-10.2l3.9-7.4c.6-1.2.7-4.2,1.1-5.4,2.3-7.1,7.4-14.1,8.4-21.2-43.9,7-95.5,26.2-129.7,53.8-34.2,27.6-11.9,13-9.7,15.4l3,3.3c-2.3,1-4.8.7-6.6-.4s-4.2-4.7-3.5-6.5c6-17,38.3-34.3,53.9-41.7,22.3-10.6,58.2-22.6,82.1-26.6l13.9-2.4,3.7-8.2-2.3-2.9c4.3-4.4,7.3-8.4,9.6-13.4l4.7-10.3,8.1,4,2.9,6.8c-1.8,3.6-3.1,7.4-5.1,10.5-2,3.1-4.2,5-3.4,7.1,1.5,4.2,4.3,4.2,8.1,4.1,15.4-.5,36.7,1.2,48.9,10.5,6.7,5.1,7.8,13.2,5.4,20.6-2.4,7.4-6.9,12.2-12.6,17.3-13.6,12-28.9,20.5-46.3,27,18.3,3.7,24.7,2.3,38,15.8s9.4,20.8,6.7,31.5l1.6,2.4c-2.9,1.1-2.9,3.3-3.7,6.2-1.9,7.2-12.4,22-17.2,27-8.6,8.9-18.1,16.5-27.7,24.1l-4.4-.6c-5.1,9-23.5,17.1-32.4,22.3-2.3-1.3-4.8-1.6-6.5,0l3.3,1.1c-5.7,3.5-11.8,7.5-18.9,8.3,2.2-1.3,4-1.5,4.9-4.1-5,.9-8.7,4-12.9,5.9l-14.7,6.7c-4.9,2.3-11.3,4-16.7,5.6-10.6,3.3-28.5,7.9-38.2,2.9s-8.5-5.2-11.3-8.3c-4.6-5.3-2.4-13.2-.6-19.2,3.5-11.8,16.5-25.9,25.3-34.7v.3ZM633.9,120.3l6.3-1.8-2.6-1.2c-.4-.2.6-1.8,1-1.6,1,.6,2.6,2.6,3.5,2.3l4.3-1.9c2.6-1.1.6-1.5-2.5-1.8l6.8-4.2c.6-.4,3.2,1.1,3.6,1.4,1.3-1.5,3.5-4,5.6-5.2,10.1-5.7,40.7-24.2,35.4-38-5.7-14.9-51.4-16.4-65.2-12.5-3.4,8.3-6.7,15.6-10.4,23.2l-3.6,7.5c-1.4,2.8-2.5,7.9-4.6,9.7s-5.4,4.5-4.7,7.5c1.7-1.6,2.5-2.4,4-3-2.2,4.5-4.5,8.1-6.1,12.2l-6.5,16.7c4.9-.4,9.4-1.8,14.2-3.6l12.4-4.6-1.1,4.2c3.7-1.2,6.6-2.6,10.1-5.3h0ZM553,209.8c.6-2.3,1.4-5.8,2.3-8.3l2.9-8.7-8.5,4.8c-21.3,12.2-43.5,30.4-52.2,54.3-2.3,6.2-5.5,12.9-2.3,19.6s7.5,7.4,11.4,7.8c13.3,1.4,25.2-2.9,36.9-7.9-3.6-3.4-5.1,2.6-8.5-.8l7.5-2.9c9.8-3.8,18.9-7.9,28.4-12.9s13.4-5.9,18.2-8.7l10-5.9,15.5-9.6,7.9-5.1c2.6-1.7,5.1-3.6,7.6-5.5l8.5-6.4c10.7-8,19.9-16.3,28.3-26.9,4.7-5.9,9-11.5,11.7-18.7s5.2-14.1.3-20.2c-12-14.9-41.7-16.7-58.4-13.6-2.9.5-23.7,8.6-27.5,10.6s-5.4,10.8-7.2,14.9l-5.7,13.7-2.6,5.7c3.5-1.2,6.2-2.7,8.9-3.4,24.7-6.9,47.9-10.3,73.6-7.4s4.8.9,6.5,2.8l-17.7-1.4c-1,2.4-1.8,4.5-1.2.1-.8-.5-2.2.6-3.4,2.6-5.3-4.2-11.4-1.5-17.4-.7s-8.7.5-13,1.5c-12.7,3-25.9,5.6-37.7,11.6-4.6,10.8-8.8,22.2-14.4,32.3l.2,7.3c-1.2.3-4.2-2.3-3.9-3.8l2.3-11-1.9,1.7-1.2-4.2-3.3,9c1.4,1,2.1,1.3,1.8,1.6l-1.5,1.3c-1.6,1.4-2.7,2.7-3.8,4.4l-2.3-3.5c-.4-.6,5-9,5.3-10.2h-.4Z"/>
  <path d="M680.9,360.2l-2.6-10c-1-3.9-.4-7.3,1.2-11.8l-5.5-.4,3.2-5.5c-.3-1.8-.8-4.7-.2-6.4l5.6-16.8c1.3-3.9,3.9-7.4,5.6-10.9,3.2-6.5,6.1-12,10.9-17.5,5.3-6.2,3.7-12.1,10.6-13.9.7-3.3,2.1-5.6,5.4-8l4.9-6.8,14.8-14.1,6.9-6.4c16.1-15,32.6-25.8,51.8-37.1l4.4-11.6c.3-.7-.2-2.6-.5-3.1-.7-1.4-1.1,2-6,5.7l-15.3,11.6c-1.4,1-5.4,1.3-6.8.5s-2.8-3.5-4-5.8l-1.4,1.6c-.3.4-1.3-1-2-1.6-5.6,4.9-14.5,14-22.4,10.5s-2.3-3.1-2.6-5.5c-.6-4.3,2.7-9.3,5-13.5s-3-4.1-4.7-4-3.7,2.2-5.4,3.5c-3.4,2.6-7,5.1-10.7,7.4l-17.5,11.2c-1.8,1.1-5.6,1.9-7.7,1.5-4.9-1-8.9-9.2-6.1-15.2s2.4-6.3,2.9-9.1c5.5-3.6,8.4-12.7,17.8-15.7s8.6,3.5,9.8,6.5c-1.1,2.9-2.5,7.5-4.4,9.3-4.8,4.6-12.2,7.5-19,6-2,3.8-3.7,8.7-2.9,13.1,7.4,1.3,26.4-12.2,31.6-15.7l10.1-6.8c0-7,3.9-12,9.2-16.3s4.5-2.6,6.8-1.2,3.5,5,1.5,7.9-5.6,6.3-8.6,9c2.8.7,5.2,1.3,6.4,3.3s.9,4.6-.4,6.7l-7.6,12.6c6.5-.6,24.8-12.9,27.7-16.5,6.9-8.4,13.1-17.1,24.1-20.7s7.2,2.6,9,4.8l5.1-4.5,4.3,4.4c-5.4,8.3-9.6,15.5-12.1,25.8,8.2-3.3,15.1-7.2,21.7-11.5-5.1-5,9.2-16.5,12.5-19.2s3.4.1,4.1.8c3.1,2.9-10,6.7-13.1,13.9,1.7.5,3.7.4,3.9,1.1l.7,3.4c-4.5,4.3-10.6,8.8-10.8,15.9,9.9-2.2,17.3-8.5,25.7-11.6s11.3,0,15.5-12.6,15.3-21.4,27.3-29,6.3,2.2,5.6,4.1c-2.4,6.8-7,12.3-12.3,17l-14.6,12.9c4.2.7,7.1,1.1,8.8,3.3s1.7,5.9.4,8.5l-3.2,6.3c6.4-1.8,9.6-5.9,14.5-9.2,19.8-13.6,14.7-20.1,22.9-17.4s4.7,4,5.4,9.3c4.9-3.1,9.7-6.9,14.1-10.3l9.3-7c1.4-1.1,5.2-.9,6.6.1s2.1,3.4,2.9,7l6.6-4.2c1.6,1.1,5.3,4,5.7,6-.4,6.2-7.4,15.5-4.6,21.2,9.6-1.1,17.8-4.5,26-8.5l-3.7,6.5c-1.9,3.3-21.4,15.4-28.4,1.8s0-9.2.4-14.7c-5.7,4.8-10.2,9.1-15.3,15.4l-4-6.1,7.1-11c-.9-3.2-5.3-2.2-7.4-.5-6.1,4.9-12.1,8.6-18.9,12.4l-8.3,10.4c-1.9,2.5-7.4,5-10,4.5-4.7-2.1-4.8-8.1-2.8-13.5-3.3,1.3-6.6,3.5-9.2,6l-15.4,15c-.9.9-3.1,2.4-4.3,2.3s-2.8-2.5-3.8-3.9l-1.6-2.1c-.3-.4,1.7-1.3,2-1.8l11-18.7c-3.6-.3-6-1.1-8.7-3.6l-18.5,10.1c-11.1,6.1-18.5,14.6-25,10.2s-3-6.6-4.1-11.2-1.9,0-1.8.5l.6,2.4c-3.7-1.3-11.7.6-13.8,5.4-4.7,10.7-6.1,22.2-8.6,33.6l-5.3,24.1c-2.2,10.1-5,19.7-7.7,29.8s-3.9,8.9-4.8,12.7c-4.1,18.8-2.5,1.1-7,20.8-.4,1.8-3.6,4.3-4.4,6l-8.3,16.8c-1.7,3.4-4.3,6.5-6.6,9.3l-5.7,6.6c-.8,1-3.2,1.3-4.7,1.6-8.2,1.6-8.6,12.2-22.4,16.1l-.8-2.2c-.8-2.2-12.4,5.5-15.2,2.9,12-5.4,7.8-.6,19.2-10-3.8-1.5-8.1,1.2-8.8,4.6-.8-1.1-1.6-2.4-2.1-2.2l-2.8.8c-18.7,5.3-10.3-4.6-19.2,3.4l-6-6.9,3.7-4.5h-.4ZM885.2,150.9c-5.5.3-9.8,4.3-10.1,9.9,4.6-1.9,7.5-5.1,10.1-9.9ZM786.7,182l10.2-8.9,2.1-1.8c1.7-1.5-.3-8.2-17.9,7.7-1.6,1.4-10.2,9.2-8.9,12.3,2.6,0,13-7.9,14.5-9.2h0ZM729,348.8l8.6-7.7c-1.5,3.1-3.4,5.2-2.5,8l10.2-15.5c5.5-8.4,11.8-19.8,15.2-29.3l8.9-25c6.3-17.8,9.7-35.9,14.8-54l7.3-26c-23,12.6-41.2,27.6-58.6,44.9-9.3,9.2-16.7,19.2-24.7,29.4-1.4,1.7-2,3.7-2.9,5.3l-12.7,23.3c-1.8,3.3-2.4,6.4-3.3,9.8-2.5,9.7-5.4,18.8-5.6,28.9s.4,28.9,14,25.5c11.9-3,21.9-9.3,31.2-17.6h0Z"/>
  <path d="M211.7,238.1c1-3.6,3.7-4.9,5.1-7.4l23-40,15.4-27.5,26.2-51.9c5-9.9,12.5-30,15.5-40.7s5.4-15.1,1.4-22.7-8.1-3.9-12.1-3.8c-12,0-23.1,4.2-33.9,9.2-23.3,10.9-43.8,23.6-63.8,40.3l-20.1,16.8-10.5,9.5c-8.7,7.9-16.5,16-24.7,24.7-19.2,20.3-36.2,41.6-51.9,64.9l-7.4,11c-1.6,2.3-3.1,5.7-4.4,8.3l-3.7,7.6c-3.3,6.7-6.5,13.9-7,21.5-.5,7.6,1.2,4.7,2.3,4.6,14.2-.9,19-9.6,30-15.8-3.8,4.5-8.2,7.6-12.9,10.8l-14.7,10.1-8.9-.4c-4.1-.2,1.4-3-6.5-7.9l3-2.5c.9-.7.4-4.3,0-5.1l-1.1,3.4c-2.9-3.3,4-21.3,7-24.8s1.8-3.3,2.9-5.8c2.8-6.7,7.5-13.5,11.7-19.7l6.8-10.1c12.2-18,26.1-33.5,41.1-48.9,6.9-7,13.1-14.1,20.4-20.6,5-4.5,9.7-8.7,14.6-13.9l1.9,1.6c1.2-2.8,2.8-5.2,5-7.1l18.4-15.9c2.6-2.3,8-5.6,10.8-7.1s3.2,0,4,0,.3-2.7.8-3.4c1.6-2.3,26.1-19.2,31.5-20l-11.3,8.3c2.3.7,4.3.9,5.7,0l17.3-10c.4-.2.6-2,.4-2.3s2.9.9,3.7.5c13.2-6.4,31.9-14.2,48.1-13.9-.6-4.6-4.3-.3-7-3.4l8.8.4-.5,3.4c20.1,4.3,8.3,37.2,2.5,48.8l-11.1,22.1-11.8,23.2-4.4,8.2-16.9,33.2-3.3,6.8c-1.4,3-4.8,4.6-2.9,9.4l9.8-12.8c5.2-6.8,10.6-13.3,16.3-19.8l16.9-19.1c10.6-12.1,35.1-36.1,48.5-44.6,2.8,1,5.3,3,6.9,5.5l-12,29.9-14.5,33.5-6,13c-1.4,3-4.1,5.2-3.1,9.3,8.8-9.6,16.9-18.1,26.6-26s6.9-3.5,10.4-1.3,4.4,6.5,3.5,11.4c-2.9,16-9.1,39.1.9,51.2s11.9,5.4,20.3,4.8c-6.7,4.9-16.3,3.7-23.1-2-5.5-4.6-9.1-11.8-10.1-19-3.3-22.8,1.7-22.1,3.2-41.3-11,6-17.5,14.3-24.9,22.9s-9.7,11.8-14.1,18.1l-9,13.1-3.2,4.8-6.4,9.5-4.5,6.4c-.4.5-1.2,1.8-1.7,1.7l-3.3-.6c-1.8-.3-6.3-2.5-5.2-3.9,1.7-2.2,3.8-4.2,5-6.5l28.6-52.6c5.3-9.8,9.7-19.4,14.4-29.4l6.4-13.7,6.7-14.6c-.2.5,9.2-19.8,4.3-16.7-8.1,5-14.9,11.1-21.3,17.4l-10.8,10.7c-6.2,6.2-11.4,12.4-17,19.1-22.7,27.1-42.9,55-62.1,84.8-2.5.7-5.5.8-8.6.8h-.3Z"/>
  <path d="M1094.9,243.3l1.1-10.6c.4-4,.6-8.6.5-12.9l-.2-12.2.9-34.8c0-2.1.2-4.2.4-6.2l2.8-33,2.1-24.2c0-.4-2.2-1-2.6-1.1s-.4-1.5-.2-1.9,1.4-.5,2.8-.7c.9-1.8,1.1-5-.2-8.6-2.9,4.8-4.2,9.2-6.6,14.1l-15.3,31.8-5.5,11.2-26.4,53.8c-5,10.2-9.3,20-13.7,30.4-3.1,7.4-2.5,9.7-4.5,12.6s-6.1-2-10.3-5,1.7-2.5,2.3-3.5l12.1-21.1,11.5-20.6,5.5-9.8,9.9-17.7c5.5-9.9,10.4-19.7,15.2-30,9.6-20.4,19.2-40.2,26.2-61.8s6.1-24.6,2.6-36.9c-2.6-9.2-12.3-12.3-20.9-10.7-7.5,1.5-13.7,4-20.3,8-19.6,12.1-35.8,28.9-47.6,48.6-1.8,3.1-2.9,6.1-4,9.4-3.6,10.7-6.1,11.7-3.4,23.1-3.7-.2-5.9-2.4-6.8-4.4-1.4-3.2-1-6.7.2-9.3l5.8-12.3c3.4-7.2,18.9-26.7,24.7-34s5.1-5.4,8.1-7.9c8.9-7.7,17.7-14.4,28.1-19.9,7.7-4,22-6.9,28.8-3,16.6,9.5,13,28.5,12.8,46.4v12.2c0,0-1.1,16.9-1.1,16.9l-1,17-1,17.8-4.6,55.3c-.5,6.5-2,12.6,0,19.8l20.9-47.9,7.8-15.2c17.1-33.4,32.7-59.7,56.9-90.5.2,3.2-2.8,5.6-4.7,8.6l2,1.6c4.7-1.2,7.1-5.2,6.8-10l8.7-9.9c-.7-6.1,2.3-3.9,7.1-10.4l3.3,2.1c1.1.7,2.7,2.9,2.9,4.2s-1.5,3.7-2.5,4.5l-1.9,1.6c-.5.4-1.4-1.6-1.7-2.4-1.6,1.9-4.6,3-6.9,3.2-1.9,4.3-4.7,8.7-7.9,12.5-12.4,14.6-22.7,30.4-32.1,47l-7.9,14.2c-6.4,11.4-11.8,22.7-17.4,34.4l-4.3,9.1c-2.9,6.1-5.4,12.3-8.3,18.7l-3.1,6.9c-2.3,5-3.8,10.2-5.6,15.4l-9.7,27-3.7,4.5c-1.5,10.3,1.1,14.8.3,23.3l-4.9-4.4c-3.7-3.4-4.1-6.5-3.4-11.4l1.5-11.1h-.4ZM1171.3,97.1l5.7-8.2c1.1-1.6,2.4-4.1,2.5-5.4-3.7-3.7-9.6,11-9.8,10.7l1.6,2.9h0Z"/>
  <path d="M427,254.7l4-.2c-.5,0,8.4-7,6.8-9.8l11.6-11.1,1.8,2c1.4,1.5.2-3.3,9.4-9.8l10.1-7.1,14.9-36.2c-5.4,2.9-20.6,21.8-24.9,9.9s1.1-4.9,2.2-9.8l-8.3,6.2-14.8,11.9c-3,2.4-7.7,3.1-10.6,1.1-7.7-5.3-1-15.1,2.1-21.2l-6.8-3.9c-4.4,2.1-9,6.6-11.8,11.1l-8.3,13.4-5.6-3.2,5.8-11.5c-10,4.6-14.2,15.6-20.7,16.3s-5.6-5.8-6.2-10.5c-5.1,2.9-15.1,17.1-19.7,9.3s-1-4.6-.2-5.9c6.1-11.3,11.2-21.9,23.6-27.4l7.9,4.5c-.8,3.4-.1,5.4,2.2,7.6-1.2,2-4,5.5-4.5,7.7l-2.8,10.3,18.4-12,2,.5c.5.1.7-1.3.9-2.3,2-7.4,1.6-2.6,6.3-12.9s4.8,3.4,9.6.7c7.1-3.9,7.3,6.5,11.1,6.4l7.8-7.3c1.4-1.3,4.5-2.1,6.1-1.8s4.7,2.6,4.6,4.2c-.2,3.6-2.1,6.2-4.7,9.2l-3.3-5.7-2.6,4.5c-6.6.5-12.7,16.9-8.9,15.8,13.1-3.9,24.5-10.9,34.1-20,2-1.9,3.4-6.5,5.4-8.2l4.9,1.8c-2.7,5.8-11.4,11.7-10.4,19.2,8-5.2,14.1-11.5,20.8-17.9l8.8-8.5c1.5-1.5,5.8,2.8,4.7,4.7-8,14.2-15.7,27.4-20.1,43.9l25.7-12.9c2.5-1.2,5.4-2,8.3-2.4-2.3,6.2-7.9,6-12.3,8.1-6.8,3.3-12.9,7-19.1,11-2.4,1.5-6.4,3.2-7.2,5.9-2.6,7.8-6.8,13.6-8.8,21.1l-3.7,13.4-6.7,16.5-5.9,14.4c-4.1,10-4.5,7.8-7.8,16.1s-7.1,15.3-12,21.3-4.9,3.8-4.8,8.4-5.7,6.1-7.4,8.5c-4.3,5.9-7,8.6-12.8,12.7,0,0-.8-.8-1.1-1-.4-.3.2-.7,1.4-2.5l-3.6.2,4.5-4.5-3.8.5,9.1-8.6,3.6-.6c5.6-7.5,9.8-15.5,14.3-23.7l8.8-16.1,7.7-17.6c2.8-6.5,6-12.6,8.6-19.3l11.3-29.9c-2.5-.9-5.1-.6-6.5.6l-16,13.3c-19.4,16.1-39.7,44.7-48.8,68.5s-4.5,17.1-5.8,26.4c-1.4-1.8-1.4-4.3-1.1-6.6l-3.8-2.4,4.1-.2c1.4-10.6,6-19.8,8-27s-2.1.1-2.5.6c-1.2,2.8-3.1,7.4-4.2,10.2s0,4.3-3.6,5c1.9-5.3,3.5-9.7,5.7-14.2l5.1-10.9,3,3.2c2.2-2.9,3.9-5.6,4.3-9.7l-5.5,5c1.9-6.8,5.8-10.3,9.1-14.9l7.2-10.1c1,.5,2.7,1.7,3.3,1.1l2.8-2.8c.4-.4,1.5-2.1,1.7-2.7s-1.2-1.6-1.5-2.1l6-7.2h0ZM381.7,177.5c-5.3.8-6.5,4.5-9.3,7s-7.7,6-8.8,11.5c4.3-2.1,18.4-15.4,18.1-18.5h0Z"/>
  <path d="M1386.5,189.6c-20-9.6-69.3-5.8-89.8,0l-33.5,9.4-19.5,5c-2.2.6-6.7.3-9,0-13.4-1.5-19.6-10-22.2-23.4-1.5.3-1.8,2.6-1.5,4.3-1.7,0-4.5.7-5.9,2l-7.4,7c-2.5,2.4-6.3,4.8-10,3.8l-3.3-6.1,3.4-8.3,2.4-3.3c.5-.8-2.6-1.6-3.6-1.3l-14.8,4.4c-3.8,5.6-9.7,11.7-15.9,14.8s-4.7.1-5.3-1l-3.4-6.8c2.1-11.4,7.5-23.2,18.2-29.4,2.6-1.5,7.5,2.1,9.2,4.2s1.4,7.8.6,12.7c25.5-4,22.9-10.1,30-15.1l6.1-4.3c5.6.5,13.2,6.5,12.2,13s-3.4,10.8-3.1,16.3c.9,14.7,21.5,11.3,31.2,8.9l18.5-4.6,15.2-3.8c1.1-.3,4.1,1,5.1.1,1.4-1.4,3.9-2.2,6.1-2.6,9-1.5,17.7-4.4,26.8-4.1,1.8,0,5.2,2.4,6.7,1.5l-2.7-1.3c-.3-.2-.5-.3-.3-.5l1.7-1.4,3.9,3.1c8.2-.8,16.5-1.1,24.4-.8v-1.6c0-4.1,2.1,2.8,3.2,2.1l3.1-2,2.2,1.4c.5.3,2.4-1.3,3.1-1.3,5.9.6,14.4,2.7,20.6,4.7l4.8,5.4c.7.8,1.3,3.2.8,4.1s-2.3,2.2-3.3,2.5l-6.2,1.5,3.3-4.4c.7-.9-1-4.1-2.1-4.7h0ZM1204.5,176.7c-3.9,1-9.4,4.9-9.7,9.7,0,1.7,15.3-11.1,9.7-9.7ZM1165,182.6c-1.7-1.9-5.6-4-6.9-2.9-3.3,3.2-6.1,7.8-4.4,12.6,4.2-2.8,7.7-5.9,11.3-9.7h0Z"/>
  <path d="M1011,178.1l-13.3,1.6c-1.2.1-4.1-1.3-4.9-2.1s-1.1-2.6-.7-4.7l20.7-1.9c4.2-.4,23-1.9,24.5,1.9s0,2.6-.7,3.1-2.9-.6-3.7-.6c-7.3.4-14,1.8-21.7,2.7h-.2Z"/>
  <path d="M254.4,45.9l-11.7,4.7,2.5-1.4c8.1-4.5,16.7-8.3,26.1-10-5.5,3.3-10.9,4.8-16.9,6.7Z"/>
  <path d="M396.1,351c-2.5,3.4-5.5-3.4-7-2.5l-3.2,2-2.3-3.7,3.1,1.1c.8.3,1.6-2,1.7-3.1-.3-2.1,0-2.8.8-1.3,1.5,4,3.1,5.4,6.8,7.5h.1Z"/>
</svg>